<svg width="250" height="301" viewBox="0 0 250 301" fill="none" xmlns="http://www.w3.org/2000/svg">
<path d="M97.2224 10.1604L104.167 60.1604H136.574C120.37 53.3422 107.408 30.6149 111.111 12.4331C114.815 -5.74872 105.71 1.06945 97.2224 10.1604Z" fill="#4C9557" stroke="#4C9557"/>
<ellipse cx="90.2778" cy="130.545" rx="90.2778" ry="79.5455" fill="#FF6363"/>
<ellipse cx="152.778" cy="132.818" rx="87.963" ry="86.3636" fill="#FF6363"/>
<ellipse cx="92.5926" cy="210.091" rx="92.5926" ry="81.8182" fill="#FF6363"/>
<ellipse cx="166.667" cy="230.545" rx="83.3333" ry="70.4545" fill="#FF6363"/>
<ellipse cx="78.7038" cy="123.727" rx="60.1852" ry="54.5455" fill="#FFADAD"/>
<ellipse cx="159.722" cy="126" rx="71.7593" ry="65.9091" fill="#FFADAD"/>
<ellipse cx="78.7037" cy="212.364" rx="64.8148" ry="61.3636" fill="#FFADAD"/>
<ellipse cx="173.611" cy="232.818" rx="67.1296" ry="59.0909" fill="#FFADAD"/>
<path d="M106.852 131.298L102.407 78.5948H115.741C116.481 77.1308 117.518 79.9123 115.741 102.75C113.518 131.298 126.852 124.71 126.852 131.298C126.852 137.885 131.296 157.649 126.852 177.413C122.407 197.176 126.852 186.196 129.074 219.136C131.296 252.075 142.407 227.919 153.518 245.487C164.63 263.055 149.074 282.818 142.407 282.818C137.074 282.818 129.815 276.962 126.852 274.034L113.518 258.663L91.2962 269.642H69.074L60.1851 265.251C71.2962 249.879 96.1851 213.426 106.852 190.588C117.518 167.75 111.296 141.545 106.852 131.298Z" fill="#FFC6C6" stroke="#FFC6C6"/>
<path d="M74.24 107.668L74.1929 107.818C74.0343 107.662 74.0192 107.59 74.24 107.668L83.4522 78.2727C84.2238 75.2424 88.5448 70.0909 99.6559 73.7273C113.545 78.2727 120.489 69.1818 127.434 69.1818C134.378 69.1818 152.897 71.4545 150.582 82.8182C148.267 94.1818 159.841 119.182 143.637 114.636C127.434 110.091 113.545 132.818 92.7114 119.182C79.4712 110.515 75.0936 107.969 74.24 107.668Z" fill="#FFC6C6"/>
<path d="M74.1929 107.818L83.4522 78.2727C84.2238 75.2424 88.5448 70.0909 99.6559 73.7273C113.545 78.2727 120.489 69.1818 127.434 69.1818C134.378 69.1818 152.897 71.4545 150.582 82.8182C148.267 94.1818 159.841 119.182 143.637 114.636C127.434 110.091 113.545 132.818 92.7114 119.182C76.0448 108.273 73.4213 107.061 74.1929 107.818Z" stroke="#FFC6C6"/>
<ellipse cx="2.30999" cy="6.8329" rx="2.30999" ry="6.8329" transform="matrix(0.942389 0.334519 -0.345554 0.938399 113.355 118.273)" fill="#F7F7DB"/>
<ellipse cx="2.27433" cy="6.93972" rx="2.27433" ry="6.93972" transform="matrix(-0.197762 0.98025 -0.981609 -0.1909 162.422 93.4834)" fill="#F7F7DB"/>
<ellipse cx="2.28178" cy="6.91767" rx="2.28178" ry="6.91767" transform="matrix(-0.468806 0.883301 -0.890251 -0.45547 162.605 107.302)" fill="#F7F7DB"/>
<ellipse cx="2.30791" cy="6.83923" rx="2.30791" ry="6.83923" transform="matrix(-0.916292 0.400511 -0.412968 -0.910746 148.767 118.003)" fill="#F7F7DB"/>
<ellipse cx="2.27277" cy="6.94433" rx="2.27277" ry="6.94433" transform="matrix(0.0309633 0.99952 -0.999554 0.0298486 78.6973 91.9091)" fill="#F7F7DB"/>
<ellipse cx="2.31189" cy="6.82709" rx="2.31189" ry="6.82709" transform="matrix(0.96559 0.260069 -0.269099 0.963113 96.2668 114.636)" fill="#F7F7DB"/>
<ellipse cx="2.31189" cy="6.82709" rx="2.31189" ry="6.82709" transform="matrix(0.96559 0.260069 -0.269099 0.963113 82.3781 110.091)" fill="#F7F7DB"/>
<ellipse cx="2.30137" cy="6.85903" rx="2.30137" ry="6.85903" transform="matrix(0.828499 0.559991 -0.574108 0.818779 75.5452 105.817)" fill="#F7F7DB"/>
<ellipse cx="2.27422" cy="6.94003" rx="2.27422" ry="6.94003" transform="matrix(0.191103 0.98157 -0.982841 0.184455 78.4568 101)" fill="#F7F7DB"/>
<ellipse cx="2.30611" cy="5.27621" rx="2.30611" ry="5.27621" transform="matrix(-0.893174 0.449712 -0.46297 -0.886374 139.402 122.305)" fill="#F7F7DB"/>
</svg>
