<svg width="305" height="305" viewBox="0 0 305 305" fill="none" xmlns="http://www.w3.org/2000/svg">
<circle cx="153" cy="150" r="150" fill="#E5C39D"/>
<circle cx="153" cy="150" r="140" fill="#FFF3B0"/>
<path d="M197.342 154.965C190.269 155.592 196.046 147.573 199.818 143.486C209.154 136.598 209.602 141.486 208.659 144.79C207.834 147.921 204.415 154.339 197.342 154.965Z" fill="#0C0926"/>
<path d="M196.281 154.183C196.517 154.357 197.342 154.6 198.757 154.183C200.525 153.661 201.586 153.139 202.293 152.617" stroke="white"/>
<path d="M244.342 103.965C237.269 104.592 243.046 96.5733 246.818 92.4859C256.154 85.5982 256.602 90.4857 255.659 93.7904C254.834 96.9211 251.415 103.339 244.342 103.965Z" fill="#0C0926"/>
<path d="M243.281 103.183C243.517 103.357 244.342 103.6 245.757 103.183C247.525 102.661 248.586 102.139 249.293 101.617" stroke="white"/>
<path d="M174.342 192.965C167.269 193.592 173.046 185.573 176.818 181.486C186.154 174.598 186.602 179.486 185.659 182.79C184.834 185.921 181.415 192.339 174.342 192.965Z" fill="#0C0926"/>
<path d="M173.281 192.183C173.517 192.357 174.342 192.6 175.757 192.183C177.525 191.661 178.586 191.139 179.293 190.617" stroke="white"/>
<path d="M194.342 109.965C187.269 110.592 193.046 102.573 196.818 98.4859C206.154 91.5982 206.602 96.4857 205.659 99.7904C204.834 102.921 201.415 109.339 194.342 109.965Z" fill="#0C0926"/>
<path d="M193.281 109.183C193.517 109.357 194.342 109.6 195.757 109.183C197.525 108.661 198.586 108.139 199.293 107.617" stroke="white"/>
<path d="M78.3424 118.965C71.2694 119.592 77.0457 111.573 80.8179 107.486C90.1542 100.598 90.6022 105.486 89.6591 108.79C88.834 111.921 85.4153 118.339 78.3424 118.965Z" fill="#0C0926"/>
<path d="M77.2814 118.183C77.5172 118.357 78.3424 118.6 79.757 118.183C81.5252 117.661 82.5862 117.139 83.2935 116.617" stroke="white"/>
<path d="M31.3424 176.965C24.2694 177.592 30.0457 169.573 33.8179 165.486C43.1542 158.598 43.6022 163.486 42.6591 166.79C41.8339 169.921 38.4153 176.339 31.3424 176.965Z" fill="#0C0926"/>
<path d="M30.2814 176.183C30.5172 176.357 31.3424 176.6 32.757 176.183C34.5252 175.661 35.5861 175.139 36.2934 174.617" stroke="white"/>
<path d="M254.342 226.965C247.269 227.592 253.046 219.573 256.818 215.486C266.154 208.598 266.602 213.486 265.659 216.79C264.834 219.921 261.415 226.339 254.342 226.965Z" fill="#0C0926"/>
<path d="M253.281 226.183C253.517 226.357 254.342 226.6 255.757 226.183C257.525 225.661 258.586 225.139 259.293 224.617" stroke="white"/>
<path d="M92.3424 161.965C85.2694 162.592 91.0457 154.573 94.8179 150.486C104.154 143.598 104.602 148.486 103.659 151.79C102.834 154.921 99.4153 161.339 92.3424 161.965Z" fill="#0C0926"/>
<path d="M91.2814 161.183C91.5172 161.357 92.3424 161.6 93.757 161.183C95.5252 160.661 96.5862 160.139 97.2935 159.617" stroke="white"/>
<path d="M162.342 139.965C155.269 140.592 161.046 132.573 164.818 128.486C174.154 121.598 174.602 126.486 173.659 129.79C172.834 132.921 169.415 139.339 162.342 139.965Z" fill="#0C0926"/>
<path d="M161.281 139.183C161.517 139.357 162.342 139.6 163.757 139.183C165.525 138.661 166.586 138.139 167.293 137.617" stroke="white"/>
<path d="M185.606 57.6901C179.741 53.6883 189.292 51.1526 194.801 50.385C206.387 50.9814 203.634 55.0441 200.809 57.001C198.185 58.8982 191.472 61.692 185.606 57.6901Z" fill="#0C0926"/>
<path d="M185.282 56.4121C185.354 56.6961 185.838 57.4078 187.196 57.9822C188.894 58.7003 190.045 58.9698 190.923 59.0149" stroke="white"/>
<path d="M109.342 49.9654C102.269 50.5915 108.046 42.5733 111.818 38.4859C121.154 31.5982 121.602 36.4857 120.659 39.7904C119.834 42.9211 116.415 49.3392 109.342 49.9654Z" fill="#0C0926"/>
<path d="M108.281 49.1827C108.517 49.3566 109.342 49.6001 110.757 49.1827C112.525 48.6609 113.586 48.1391 114.293 47.6173" stroke="white"/>
<path d="M113.342 261.965C106.269 262.592 112.046 254.573 115.818 250.486C125.154 243.598 125.602 248.486 124.659 251.79C123.834 254.921 120.415 261.339 113.342 261.965Z" fill="#0C0926"/>
<path d="M112.281 261.183C112.517 261.357 113.342 261.6 114.757 261.183C116.525 260.661 117.586 260.139 118.293 259.617" stroke="white"/>
<path d="M47.2777 104.248C43.2926 103.294 36.9037 100.214 43.2289 95.531C49.5541 90.8476 55.0206 89.3266 56.9633 89.1516C61.2948 89.2176 68.4184 90.9374 62.2607 97.2885C60.1845 99.4299 58.0811 100.956 56.1118 102.025L57.0607 104.068C58.2615 106.834 60.5088 112.689 59.891 113.974C59.1188 115.579 57.78 114.331 56.9175 114.108C56.3076 113.951 54.023 107.719 52.5821 103.544C50.2662 104.286 48.3704 104.395 47.2777 104.248Z" fill="#EFD6BE"/>
<path d="M258.766 120.311C256.857 116.685 254.964 109.85 262.654 111.522C270.345 113.193 275.091 116.303 276.503 117.649C279.308 120.951 282.708 127.442 273.873 126.995C270.894 126.845 268.361 126.268 266.259 125.491L265.348 127.551C264.058 130.277 261.134 135.826 259.761 136.208C258.045 136.685 258.102 134.855 257.701 134.059C257.417 133.497 260.599 127.672 262.79 123.837C260.706 122.584 259.375 121.23 258.766 120.311Z" fill="#EFD6BE"/>
<path d="M212.278 177.248C208.293 176.294 201.904 173.214 208.229 168.531C214.554 163.848 220.021 162.327 221.963 162.152C226.295 162.218 233.418 163.937 227.261 170.289C225.184 172.43 223.081 173.956 221.112 175.025L222.061 177.068C223.262 179.834 225.509 185.689 224.891 186.974C224.119 188.579 222.78 187.331 221.918 187.108C221.308 186.951 219.023 180.719 217.582 176.544C215.266 177.286 213.37 177.395 212.278 177.248Z" fill="#EFD6BE"/>
<path d="M166.102 231.057C162.15 232.142 155.068 232.524 158.353 225.371C161.637 218.219 165.693 214.251 167.311 213.161C171.138 211.131 178.208 209.204 175.875 217.737C175.088 220.614 173.98 222.965 172.77 224.851L174.586 226.183C176.972 228.029 181.763 232.075 181.841 233.498C181.938 235.277 180.164 234.829 179.301 235.049C178.69 235.205 173.685 230.847 170.41 227.884C168.739 229.65 167.13 230.659 166.102 231.057Z" fill="#EFD6BE"/>
<path d="M95.6865 187.244C94.0845 183.472 92.7619 176.504 100.288 178.805C107.815 181.107 112.288 184.598 113.583 186.056C116.106 189.578 118.958 196.328 110.19 195.153C107.234 194.757 104.757 193.973 102.726 193.025L101.648 195.002C100.137 197.613 96.7654 202.901 95.3654 203.168C93.6154 203.501 93.8231 201.683 93.4895 200.857C93.2536 200.273 96.9058 194.731 99.406 191.09C97.4324 189.669 96.2181 188.209 95.6865 187.244Z" fill="#EFD6BE"/>
<path d="M158.278 146.248C154.293 145.294 147.904 142.214 154.229 137.531C160.554 132.848 166.021 131.327 167.963 131.152C172.295 131.218 179.418 132.937 173.261 139.289C171.184 141.43 169.081 142.956 167.112 144.025L168.061 146.068C169.262 148.834 171.509 154.689 170.891 155.974C170.119 157.579 168.78 156.331 167.918 156.108C167.308 155.951 165.023 149.719 163.582 145.544C161.266 146.286 159.37 146.395 158.278 146.248Z" fill="#EFD6BE"/>
<path d="M60.9306 150.052C58.4563 153.318 53.0706 157.933 51.3215 150.259C49.5725 142.586 50.3749 136.968 50.9947 135.119C52.7947 131.179 57.2305 125.345 60.5741 133.535C61.7014 136.297 62.254 138.836 62.4423 141.068L64.6941 141.02C67.7104 141.031 73.9749 141.324 74.9031 142.406C76.0633 143.758 74.3824 144.483 73.832 145.183C73.4428 145.678 66.8185 145.268 62.4164 144.911C62.166 147.33 61.5039 149.11 60.9306 150.052Z" fill="#EFD6BE"/>
<path d="M179.278 68.2479C175.293 67.2937 168.904 64.2144 175.229 59.531C181.554 54.8476 187.021 53.3266 188.963 53.1516C193.295 53.2176 200.418 54.9374 194.261 61.2885C192.184 63.4299 190.081 64.9556 188.112 66.0248L189.061 68.0675C190.262 70.8344 192.509 76.6894 191.891 77.9738C191.119 79.5792 189.78 78.3309 188.918 78.1081C188.308 77.9506 186.023 71.7191 184.582 67.5443C182.266 68.2864 180.37 68.3948 179.278 68.2479Z" fill="#EFD6BE"/>
<path d="M86.1354 72.1782C84.6965 68.3415 83.6737 61.3233 91.0945 63.9451C98.5153 66.5669 102.835 70.2465 104.067 71.7587C106.436 75.3856 108.996 82.252 100.287 80.7021C97.3504 80.1796 94.909 79.29 92.921 78.2561L91.7589 80.1855C90.1376 82.7289 86.5424 87.8676 85.1322 88.0742C83.3695 88.3325 83.655 86.5244 83.3571 85.6849C83.1464 85.0913 87.0327 79.7111 89.6866 76.1809C87.7757 74.6766 86.6251 73.166 86.1354 72.1782Z" fill="#EFD6BE"/>
<path d="M44.2777 194.248C40.2926 193.294 33.9037 190.214 40.2289 185.531C46.5541 180.848 52.0206 179.327 53.9633 179.152C58.2948 179.218 65.4184 180.937 59.2607 187.289C57.1845 189.43 55.0811 190.956 53.1118 192.025L54.0607 194.068C55.2615 196.834 57.5088 202.689 56.891 203.974C56.1188 205.579 54.78 204.331 53.9175 204.108C53.3076 203.951 51.023 197.719 49.5821 193.544C47.2662 194.286 45.3704 194.395 44.2777 194.248Z" fill="#EFD6BE"/>
<path d="M136.804 34.2579C134.054 31.2195 130.521 25.0696 138.386 24.7778C146.251 24.486 151.621 26.3188 153.323 27.2717C156.86 29.7728 161.767 35.2159 153.098 36.9784C150.176 37.5727 147.578 37.6436 145.349 37.4135L144.978 39.6351C144.406 42.5966 142.953 48.6974 141.718 49.4083C140.174 50.2969 139.774 48.5106 139.189 47.8396C138.774 47.3651 140.409 40.9325 141.578 36.6735C139.248 35.9777 137.622 34.9963 136.804 34.2579Z" fill="#EFD6BE"/>
<circle cx="163" cy="84" r="10" fill="#FF7D7D"/>
<circle cx="143" cy="173" r="10" fill="#FF7D7D"/>
<circle cx="79" cy="220" r="10" fill="#FF7D7D"/>
<circle cx="99" cy="64" r="10" fill="#FF7D7D"/>
<circle cx="68" cy="145" r="10" fill="#FF7D7D"/>
<circle cx="163" cy="257" r="10" fill="#FF7D7D"/>
<circle cx="259" cy="183" r="10" fill="#FF7D7D"/>
<circle cx="129" cy="125" r="10" fill="#FF7D7D"/>
<circle cx="124" cy="120" r="1" fill="#F8AEAE"/>
<circle cx="214" cy="69" r="10" fill="#FF7D7D"/>
<circle cx="214" cy="220" r="10" fill="#FF7D7D"/>
<circle cx="224" cy="125" r="10" fill="#FF7D7D"/>
<line x1="151.5" x2="151.5" y2="305" stroke="white" stroke-width="3"/>
<line x1="42.8733" y1="255.005" x2="258.541" y2="39.3378" stroke="white" stroke-width="3"/>
<line y1="148.5" x2="305" y2="148.5" stroke="white" stroke-width="3"/>
<line x1="44.9947" y1="42.8733" x2="260.662" y2="258.541" stroke="white" stroke-width="3"/>
</svg>
