<svg width="60" height="60" viewBox="0 0 60 60" fill="none" xmlns="http://www.w3.org/2000/svg">
<path d="M49.1651 18.75C49.2455 18.1289 49.2856 17.5078 49.2856 16.875C49.2856 7.55859 40.6473 0 29.9999 0C19.3526 0 10.7142 7.55859 10.7142 16.875C10.7142 17.5078 10.7544 18.1289 10.8348 18.75H10.7142C7.16511 18.75 4.28564 21.2695 4.28564 24.375C4.28564 27.4805 7.16511 30 10.7142 30H49.2856C52.8348 30 55.7142 27.4805 55.7142 24.375C55.7142 21.2695 52.8348 18.75 49.2856 18.75H49.1651ZM12.8571 33.75L26.8928 58.3242C27.4821 59.3555 28.674 60 29.9999 60C31.3258 60 32.5178 59.3555 33.1071 58.3242L47.1428 33.75H12.8571Z" fill="#E49133"/>
</svg>
