<svg width="60" height="60" viewBox="0 0 60 60" fill="none" xmlns="http://www.w3.org/2000/svg">
<g clip-path="url(#clip0_1_591)">
<path d="M18.3075 5H10V0H21.6925L26.6925 12.5H52.5V17.5H47.205L45.1375 52.6475C45.0999 53.2838 44.8207 53.8817 44.3569 54.3189C43.8932 54.7562 43.2799 54.9998 42.6425 55H17.3575C16.7201 54.9998 16.1068 54.7562 15.6431 54.3189C15.1793 53.8817 14.9001 53.2838 14.8625 52.6475L12.795 17.5H7.5V12.5H21.3075L18.3075 5ZM17.8025 17.5L18.2475 25.0625C24.9275 25.3375 28.17 26.575 30.9 27.6675C33.5275 28.7175 35.7 29.6325 41.4675 29.9175L42.1975 17.5H17.8025Z" fill="#E49133"/>
</g>
<defs>
<clipPath id="clip0_1_591">
<rect width="60" height="60" fill="white"/>
</clipPath>
</defs>
</svg>
