<svg width="60" height="60" viewBox="0 0 60 60" fill="none" xmlns="http://www.w3.org/2000/svg">
<path d="M39.5 16.5829C39.5 14.4724 40.5 12.9648 41 12.0603H44L48.5 4.52261H52.5V0H7.5V4.52261H11.5L16 12.0603H19C20 12.9648 20.5 14.4724 20.5 16.5829C20.5 20.5025 0 35.2764 0 47.0352V53.0653C0 57.2864 13.5 60 30 60C46.5 60 60 57.2864 60 53.0653V47.0352C60 35.2764 39.5 20.5025 39.5 16.5829ZM30 39.196C27.3478 39.196 24.8043 38.5607 22.9289 37.4298C21.0536 36.2989 20 34.7651 20 33.1658C20 31.5665 21.0536 30.0327 22.9289 28.9019C24.8043 27.771 27.3478 27.1357 30 27.1357C32.6522 27.1357 35.1957 27.771 37.0711 28.9019C38.9464 30.0327 40 31.5665 40 33.1658C40 34.7651 38.9464 36.2989 37.0711 37.4298C35.1957 38.5607 32.6522 39.196 30 39.196Z" fill="#E49133"/>
</svg>
