<svg width="60" height="60" viewBox="0 0 60 60" fill="none" xmlns="http://www.w3.org/2000/svg">
<path d="M12 11.868C12 8.58302 14.685 5.80202 18.09 6.01202C31.431 6.83402 43.131 11.322 52.296 20.073C54.897 22.554 54.384 26.607 51.687 28.677L50.955 29.241L49.764 27.918L49.743 27.897C40.935 18.852 28.17 13.542 14.613 13.542H12V11.868ZM12 16.539V49.5C12 53.196 16.218 55.314 19.185 53.103L24.009 49.509V49.515C24.009 50.3107 24.3251 51.0737 24.8877 51.6363C25.4503 52.199 26.2134 52.515 27.009 52.515C27.8047 52.515 28.5677 52.199 29.1303 51.6363C29.6929 51.0737 30.009 50.3107 30.009 49.515V43.509C30.012 43.1286 30.1595 42.7636 30.4215 42.4878C30.6835 42.2121 31.0405 42.0461 31.4203 42.0236C31.8 42.0011 32.1741 42.1238 32.4668 42.3667C32.7596 42.6096 32.9491 42.9547 32.997 43.332V45.012C32.997 45.8077 33.3131 46.5707 33.8757 47.1333C34.4383 47.696 35.2014 48.012 35.997 48.012C36.7927 48.012 37.5557 47.696 38.1183 47.1333C38.6809 46.5707 38.997 45.8077 38.997 45.012V38.298C41.472 36.483 45.255 33.606 48.567 31.074L47.574 29.967C39.357 21.543 27.39 16.539 14.61 16.539H12ZM24.744 24.765C24.7438 25.0595 24.6856 25.3511 24.5727 25.6231C24.4598 25.8951 24.2945 26.1422 24.0861 26.3503C23.8778 26.5584 23.6304 26.7234 23.3583 26.8359C23.0861 26.9484 22.7945 27.0062 22.5 27.006C22.2055 27.0058 21.9139 26.9476 21.6419 26.8347C21.3699 26.7219 21.1228 26.5565 20.9148 26.3482C20.7067 26.1398 20.5416 25.8925 20.4291 25.6203C20.3166 25.3482 20.2588 25.0565 20.259 24.762C20.259 24.1673 20.4953 23.5969 20.9158 23.1763C21.3364 22.7558 21.9068 22.5195 22.5015 22.5195C23.0962 22.5195 23.6666 22.7558 24.0872 23.1763C24.5077 23.5969 24.744 24.1673 24.744 24.762M33.669 30.762C33.669 31.3568 33.4327 31.9272 33.0122 32.3477C32.5916 32.7683 32.0212 33.0045 31.4265 33.0045C30.8318 33.0045 30.2614 32.7683 29.8408 32.3477C29.4203 31.9272 29.184 31.3568 29.184 30.762C29.184 30.1673 29.4203 29.5969 29.8408 29.1763C30.2614 28.7558 30.8318 28.5195 31.4265 28.5195C32.0212 28.5195 32.5916 28.7558 33.0122 29.1763C33.4327 29.5969 33.669 30.1673 33.669 30.762ZM24.768 38.268C24.768 38.866 24.5305 39.4394 24.1077 39.8622C23.6849 40.285 23.1114 40.5225 22.5135 40.5225C21.9156 40.5225 21.3421 40.285 20.9193 39.8622C20.4965 39.4394 20.259 38.866 20.259 38.268C20.259 37.6701 20.4965 37.0967 20.9193 36.6739C21.3421 36.251 21.9156 36.0135 22.5135 36.0135C23.1114 36.0135 23.6849 36.251 24.1077 36.6739C24.5305 37.0967 24.768 37.6701 24.768 38.268Z" fill="#E49133"/>
</svg>
