<svg width="200" height="200" viewBox="0 0 200 200" fill="none" xmlns="http://www.w3.org/2000/svg">
<path d="M39.326 120.725L98.8575 0.994995L154.753 109.017L180.657 161.139C185.504 170.959 195.926 191.581 198.834 195.51C201.742 199.438 198.531 199.916 196.562 199.664H186.564H168.387H139.303H105.22H52.5048C47.0515 199.664 42.0527 200.42 37.5083 199.664C32.9639 198.909 24.3296 198.531 17.9674 198.909C11.6052 199.287 2.06204 198.153 0.244289 197.398C-1.20991 196.794 4.18276 188.837 7.06087 184.934L17.9674 164.916L39.326 120.725Z" fill="#E5C39D"/>
<path d="M39.4497 115.936L98.5 0L102 4.97512L106.5 12.9353L115 26.3682L128 52.7363L154.103 103.98L177.334 154.733C182.011 164.161 192.068 183.958 194.875 187.729C197.681 191.5 194.583 191.959 192.682 191.717H183.034H165.493H137.427H104.537H53.6671C48.4047 191.717 43.5809 192.443 39.1955 191.717C34.8102 190.992 26.4781 190.63 20.3386 190.992C14.1991 191.355 6.75412 190.713 4.99998 189.988C3.59668 189.408 7.96203 181.769 10.7394 178.022L19.5 158.359L39.4497 115.936Z" fill="#FFF3B0"/>
<circle cx="127" cy="103" r="10" fill="#FF7D7D"/>
<circle cx="145" cy="169" r="10" fill="#FF7D7D"/>
<circle cx="73" cy="89" r="10" fill="#FF7D7D"/>
<circle cx="93" cy="142" r="10" fill="#FF7D7D"/>
<circle cx="49" cy="173" r="10" fill="#FF7D7D"/>
<circle cx="100" cy="52" r="10" fill="#FF7D7D"/>
<path d="M133.116 142.902C133.359 140.594 134.662 136.595 137.928 139.06C141.194 141.525 142.528 144.144 142.787 145.146C143.094 147.467 142.651 151.595 138.416 149.541C136.988 148.849 135.92 148.023 135.133 147.18L134.005 148.08C132.471 149.255 129.2 151.584 128.394 151.503C127.386 151.402 128.015 150.447 128.077 149.944C128.121 149.589 131.61 147.167 133.955 145.593C133.332 144.502 133.116 143.513 133.116 142.902Z" fill="#EFD6BE"/>
<path d="M90.6502 169.42C89.977 166.89 89.7609 162.521 94.2818 165.275C98.8026 168.028 101.302 170.922 101.987 172.025C103.26 174.577 104.455 179.101 99.056 176.784C97.2355 176.003 95.7499 175.081 94.559 174.144L93.708 175.116C92.5297 176.382 89.9477 178.889 89.0456 178.789C87.9178 178.663 88.2085 177.624 88.0718 177.073C87.9752 176.684 90.7557 174.078 92.6456 172.385C91.5321 171.179 90.8987 170.09 90.6502 169.42Z" fill="#EFD6BE"/>
<path d="M97.4266 86.2715C94.1945 85.6926 88.7197 83.4531 92.6778 79.1259C96.6359 74.7987 100.534 73.1976 101.989 72.9379C105.318 72.7452 111.099 73.7919 107.584 79.521C106.399 81.4527 105.077 82.8648 103.771 83.8828L104.884 85.5574C106.327 87.8304 109.155 92.6571 108.925 93.7796C108.637 95.1828 107.376 94.2031 106.673 94.0641C106.176 93.9657 103.248 88.8225 101.356 85.3715C99.7224 86.1326 98.2911 86.3332 97.4266 86.2715Z" fill="#EFD6BE"/>
<path d="M57.6118 133.458C54.6493 134.732 49.5058 135.784 52.6319 129.804C55.7579 123.824 59.1022 120.269 60.3835 119.239C63.3566 117.234 68.6559 114.966 66.0682 121.932C65.1957 124.281 64.1481 126.249 63.0759 127.863L64.2429 128.719C65.7661 129.919 68.7888 132.596 68.6937 133.709C68.5749 135.099 67.3437 134.934 66.6984 135.2C66.2421 135.387 63.0983 132.487 61.0532 130.502C59.6613 132.07 58.3949 133.035 57.6118 133.458Z" fill="#EFD6BE"/>
<path d="M78.4511 73.9792C73.2642 74.3549 77.5002 69.544 80.2665 67.0915C87.1131 62.9589 87.4416 65.8914 86.75 67.8742C86.1449 69.7527 83.6379 73.6035 78.4511 73.9792Z" fill="#0C0926"/>
<path d="M77.6731 73.5096C77.846 73.614 78.4511 73.7601 79.4885 73.5096C80.7852 73.1965 81.5632 72.8834 82.0819 72.5704" stroke="white"/>
<path d="M107.674 163.984C102.016 164.276 106.637 160.534 109.654 158.627C117.123 155.412 117.482 157.693 116.727 159.236C116.067 160.697 113.332 163.692 107.674 163.984Z" fill="#0C0926"/>
<path d="M106.825 163.619C107.014 163.7 107.674 163.813 108.806 163.619C110.22 163.375 111.069 163.132 111.635 162.888" stroke="white"/>
<path d="M44.8967 156.977C38.7668 157.394 43.7729 152.049 47.0422 149.324C55.1337 144.732 55.5219 147.99 54.7046 150.194C53.9894 152.281 51.0266 156.559 44.8967 156.977Z" fill="#0C0926"/>
<path d="M43.9772 156.455C44.1816 156.571 44.8967 156.733 46.1227 156.455C47.6552 156.107 48.5747 155.759 49.1877 155.412" stroke="white"/>
<path d="M162.451 185.984C157.264 186.276 161.5 182.534 164.266 180.627C171.113 177.412 171.442 179.693 170.75 181.236C170.145 182.697 167.638 185.692 162.451 185.984Z" fill="#0C0926"/>
<path d="M161.673 185.619C161.846 185.7 162.451 185.813 163.488 185.619C164.785 185.375 165.563 185.132 166.082 184.888" stroke="white"/>
<path d="M125.198 132.278C118.264 130.749 126.184 124.838 131.01 122.074C141.986 118.312 140.943 123.108 139.05 125.976C137.322 128.714 132.132 133.807 125.198 132.278Z" fill="#0C0926"/>
<path d="M124.422 131.212C124.594 131.449 125.308 131.93 126.783 131.957C128.626 131.991 129.795 131.812 130.626 131.527" stroke="white"/>
<path d="M82.1196 121.972C75.5181 122.473 80.9093 116.059 84.4301 112.789C93.144 107.279 93.5621 111.189 92.6819 113.832C91.9117 116.337 88.721 121.471 82.1196 121.972Z" fill="#0C0926"/>
<path d="M81.1293 121.346C81.3494 121.485 82.1195 121.68 83.4398 121.346C85.0902 120.929 86.0804 120.511 86.7406 120.094" stroke="white"/>
</svg>
