<svg width="200" height="200" viewBox="0 0 200 200" fill="none" xmlns="http://www.w3.org/2000/svg">
<path d="M180.922 14.2175C181.131 14.2771 181.314 14.3298 181.471 14.375L189.568 23.3986L197.5 32.2381V55.4119V104.543L192.165 153.11L192.15 153.247V153.383V175.503L185.431 194.144L148.133 197.491L103.074 193.999L103.037 193.996L103 193.994L61.0246 191.989L60.9059 191.983L60.7872 191.989L20.2922 193.905L7.83333 156.487V110.21V110.059L7.81535 109.91L2.5 65.8192V42.5619L14.0439 24.2931C43.5503 3.22787 85.2264 0.600394 120.034 3.45172C137.444 4.87794 152.987 7.66154 164.178 10.0898C169.772 11.3034 174.272 12.4271 177.369 13.2457C178.918 13.6549 180.115 13.9878 180.922 14.2175Z" fill="#EAEAEA" stroke="#FFC993" stroke-width="5"/>
<path d="M149.233 46.6892L154.218 52.2715L159.171 57.8168V71.9948V101.305L153.576 155.5H48.8383L44.8112 104.584L44.8104 104.574L44.8092 104.564L41.6523 78.2513V64.0566L48.748 52.7732C66.5387 39.9136 91.6237 38.3629 112.363 40.07C122.734 40.9236 131.989 42.5893 138.651 44.0417C141.981 44.7678 144.663 45.4404 146.51 45.9311C147.434 46.1765 148.149 46.3764 148.633 46.5147C148.875 46.5839 149.059 46.6377 149.182 46.6741C149.201 46.6795 149.218 46.6846 149.233 46.6892Z" stroke="#84B38C"/>
<path d="M120.99 106.056L151.165 111.688C153.392 112.104 155.06 114.125 155.06 116.407L155.06 122.954L154.238 134.932L153.47 143.804C153.438 144.177 153.36 144.542 153.238 144.89L150.911 151.529C150.217 153.51 148.226 154.649 146.137 154.259L131.877 151.597C131.247 151.48 130.608 151.474 129.988 151.581L119.124 153.454C117.386 153.753 115.58 152.959 114.534 151.432L112.253 148.108L107.904 140.75C106.924 139.092 107.023 137.045 108.153 135.612L113.69 128.587C114.599 127.434 114.982 125.924 114.749 124.411L113.558 116.69C113.427 115.839 113.532 114.982 113.863 114.216L116.326 108.504C117.109 106.686 119.013 105.687 120.99 106.056Z" fill="#F1E07C" stroke="#8E8900"/>
<path d="M46.2803 60.613L78.1277 56.9627C79.4769 56.808 80.8015 57.2731 81.7321 58.2284L85.8178 62.4225C87.0954 63.7339 87.4086 65.7325 86.6054 67.4477L82.6305 75.9352C81.9843 77.315 81.9167 78.8807 82.4433 80.2695L85.158 87.4286C85.4538 88.2087 85.523 89.0647 85.3578 89.8992L83.7603 97.967C83.5361 99.0994 82.895 100.119 81.9672 100.818L69.0462 110.558C66.6096 112.395 63.316 110.309 63.9766 107.348C64.6091 104.512 62.3534 101.969 59.4962 102.296L50.2984 103.35C47.8293 103.633 45.6717 101.854 45.4793 99.3764L44.1958 82.8458C44.1736 82.5592 44.129 82.2757 44.0624 81.9977L41.8157 72.6129C41.709 72.1674 41.6716 71.7055 41.7047 71.2435L42.156 64.9365C42.3157 62.7043 44.0689 60.8665 46.2803 60.613Z" fill="#F1E07C" stroke="#8E8900"/>
<path d="M50.6173 148.5L47.3251 108L50.6173 106H57.2016L63.786 108V114L71.1934 111.5L80.6584 106L87.2428 93.5V84L85.1852 77C86.2826 74.5 88.8066 69 90.1234 67C91.7695 64.5 87.2428 61.5 85.1852 58C83.1275 54.5 85.1852 55 74.8971 55C64.609 55 65.4321 57 58.8477 58C52.2633 59 47.3251 59 52.6749 55C58.0247 51 58.8477 52 63.786 48C68.7243 44 81.4815 44.5 85.1852 42.5C88.8889 40.5 93.4156 44.5 98.3539 44.5C103.292 44.5 115.638 46 119.753 44.5C123.868 43 132.922 48 139.506 48C146.091 48 144.033 52 148.56 52C153.086 52 152.675 58.5 156.79 61.5C160.905 64.5 154.321 75.5 156.79 87C159.259 98.5 156.379 101 154.321 108C152.263 115 152.263 101 148.56 108C144.856 115 142.798 102.5 132.922 101C123.045 99.5 117.695 102 110.288 106C102.881 110 108.23 111 110.288 117C112.346 123 108.23 125.5 101.235 136.5C97.1193 140.5 103.292 142.5 108.23 148.5C113.169 154.5 104.938 153.5 103.292 153.5H77.7778C65.4321 153.5 68.7243 154 58.8477 153.5C50.9465 153.1 50.0686 150 50.6173 148.5Z" fill="#FEFEE6" stroke="#FFFF80"/>
</svg>
