<svg width="60" height="60" viewBox="0 0 60 60" fill="none" xmlns="http://www.w3.org/2000/svg">
<path d="M30.175 21.775C34.3172 21.775 37.675 19.861 37.675 17.5C37.675 15.139 34.3172 13.225 30.175 13.225C26.0329 13.225 22.675 15.139 22.675 17.5C22.675 19.861 26.0329 21.775 30.175 21.775Z" fill="#E49133"/>
<path d="M30.175 55C41.375 55 50.175 49.5 50.175 42.5V17.5C50.175 10.5 41.375 5 30.175 5C18.975 5 10.175 10.5 10.175 17.5V42.5C10.175 49.5 18.95 55 30.175 55ZM30.175 10C39 10 45.175 13.95 45.175 17.5C45.1051 18.2714 44.8569 19.0159 44.4501 19.675C42.75 22.175 38.125 24.675 31.95 24.975H28.475C22.2 24.575 17.5 22.225 15.875 19.6C15.5261 19.0154 15.2888 18.3712 15.175 17.7V17.5C15.175 13.95 21.325 10 30.175 10Z" fill="#E49133"/>
</svg>
