<svg width="300" height="300" viewBox="0 0 300 300" fill="none" xmlns="http://www.w3.org/2000/svg">
<g clip-path="url(#clip0_11_81)">
<circle cx="150" cy="150" r="150" fill="#84BDFF"/>
<ellipse cx="150" cy="149.997" rx="140" ry="140" fill="#BFDDFF"/>
<path d="M203.757 67.4242C210.733 95.4076 177.617 93.2469 136.108 104.479C94.5979 115.71 67.345 155.84 60.3687 127.857C53.3924 99.8733 69.6396 42.4158 111.149 31.1841C152.659 19.9524 196.781 39.4408 203.757 67.4242Z" fill="#FA4A4A"/>
<path d="M200.533 73.2646C206.433 96.9316 175.649 95.8553 136.767 106.376C97.8843 116.897 71.6604 151.696 65.7602 128.029C59.86 104.362 76.206 55.0623 115.089 44.5415C153.971 34.0206 194.633 49.5976 200.533 73.2646Z" fill="#FF7676"/>
<path d="M176.604 89.919C179.165 100.192 161.576 99.751 139.437 105.741C117.299 111.731 100.001 125.919 96.4337 111.612C93.8727 101.339 106.857 69.8456 128.995 63.8553C151.134 57.8651 174.043 79.6465 176.604 89.919Z" fill="#FF9191"/>
<ellipse cx="5.19085" cy="2.08877" rx="5.19085" ry="2.08877" transform="matrix(0.965288 -0.261188 0.241899 0.970302 174.582 81.8086)" fill="#F3EEB4"/>
<ellipse cx="5.1933" cy="2.08791" rx="5.1933" ry="2.08791" transform="matrix(0.9413 -0.342522 0.312388 0.948411 170.269 75.2339)" fill="#F3EEB4"/>
<ellipse cx="5.21565" cy="2.08006" rx="5.21565" ry="2.08006" transform="matrix(0.86485 -0.512198 0.462288 0.881574 164.821 69.3933)" fill="#F3EEB4"/>
<ellipse cx="5.25552" cy="2.0659" rx="5.25552" ry="2.0659" transform="matrix(0.766607 -0.654081 0.593486 0.796028 156.78 64.5923)" fill="#F3EEB4"/>
<ellipse cx="5.33352" cy="2.0376" rx="5.33352" ry="2.0376" transform="matrix(0.593624 -0.816791 0.756536 0.639396 148.09 61.361)" fill="#F3EEB4"/>
<ellipse cx="5.46114" cy="1.98949" rx="5.46114" ry="1.98949" transform="matrix(-0.290601 0.966004 -0.931142 -0.3381 146.398 49.9558)" fill="#F3EEB4"/>
<ellipse cx="5.56355" cy="1.94918" rx="5.56355" ry="1.94918" transform="matrix(0.12008 0.995236 -0.98993 0.120037 134.259 48.5839)" fill="#F3EEB4"/>
<ellipse cx="5.5631" cy="1.94936" rx="5.5631" ry="1.94936" transform="matrix(0.36393 0.928696 -0.919026 0.401508 121.514 51.4564)" fill="#F3EEB4"/>
<ellipse cx="5.49622" cy="1.97586" rx="5.49622" ry="1.97586" transform="matrix(0.627184 0.769008 -0.736022 0.689119 110.472 57.6918)" fill="#F3EEB4"/>
<ellipse cx="5.39477" cy="2.0148" rx="5.39477" ry="2.0148" transform="matrix(0.819084 0.55618 -0.506196 0.873895 101.251 65.5934)" fill="#F3EEB4"/>
<ellipse cx="5.33854" cy="2.03575" rx="5.33854" ry="2.03575" transform="matrix(0.894195 0.425179 -0.374537 0.937397 93.7528 74.8334)" fill="#F3EEB4"/>
<ellipse cx="5.30009" cy="2.04983" rx="5.30009" ry="2.04983" transform="matrix(0.936439 0.323489 -0.276765 0.969915 87.0137 86.7528)" fill="#F3EEB4"/>
<ellipse cx="5.19085" cy="2.08877" rx="5.19085" ry="2.08877" transform="matrix(0.965288 -0.261188 0.241899 0.970302 83.2325 112.295)" fill="#F3EEB4"/>
<ellipse cx="5.23682" cy="2.07257" rx="5.23682" ry="2.07257" transform="matrix(0.987043 0.110523 -0.0817182 1.00273 83.6575 97.7572)" fill="#F3EEB4"/>
<path d="M93.3657 192.408C115.555 220.755 171.301 212.626 144.021 235.103C116.741 257.579 76.6374 252.82 54.4481 224.472C32.2587 196.125 36.3858 154.924 63.6661 132.447C90.9465 109.971 71.1763 164.06 93.3657 192.408Z" fill="white"/>
<path d="M103.438 188.933C122.458 213.231 147.246 215.56 140.696 220.956C134.147 226.352 91.3282 238.879 72.3087 214.581C53.2892 190.283 71.1517 138.341 77.6551 134.189C82.6536 142.132 84.4187 164.636 103.438 188.933Z" fill="#FFFF6E"/>
<path d="M115.252 163.519C97.7539 164.288 112.533 147.977 122.11 139.725C145.603 126.047 146.389 136.291 143.846 143.123C141.606 149.601 132.749 162.749 115.252 163.519Z" fill="#0C0926"/>
<path d="M113.641 157.651C114.211 158.033 116.232 158.604 119.75 157.84C124.149 156.884 126.801 155.875 128.581 154.839" stroke="white"/>
<ellipse cx="37.2373" cy="44.5847" rx="37.2373" ry="44.5847" transform="matrix(0.495306 0.879178 -0.830442 0.541606 202.068 179.961)" fill="#28962D"/>
<ellipse cx="37.0646" cy="44.7764" rx="37.0646" ry="44.7764" transform="matrix(0.985061 0.117112 -0.149923 0.996046 115.702 152.65)" fill="#28962D"/>
<ellipse cx="37.3368" cy="44.4734" rx="37.3368" ry="44.4734" transform="matrix(0.45287 0.902309 -0.854242 0.502146 236.7 137.602)" fill="#28962D"/>
<ellipse cx="37.1154" cy="44.7201" rx="37.1154" ry="44.7201" transform="matrix(0.549629 0.845363 -0.796704 0.591502 263.095 88.5762)" fill="#28962D"/>
<ellipse cx="37.0646" cy="44.7764" rx="37.0646" ry="44.7764" transform="matrix(0.985061 0.117112 -0.149923 0.996046 143.723 110.709)" fill="#28962D"/>
<ellipse cx="40.1748" cy="42.0411" rx="40.1748" ry="42.0411" transform="matrix(0.854822 0.518921 -0.500627 0.865663 191.741 60.3906)" fill="#28962D"/>
<path d="M157.199 139.918C168.308 157.038 169.552 154.098 169.874 159.989C170.197 165.88 164.724 166.134 171.524 174.719C179.009 184.17 186.21 173.005 189.977 177.142" stroke="#D4F6D5"/>
<path d="M130.707 169.271C133.659 193.43 134.078 196.965 136.84 198.153C139.603 199.341 140.404 193.454 145.522 205.841C150.639 218.228 161.665 223.569 158.687 227.681" stroke="#D4F6D5"/>
<path d="M164.369 212.388C181.482 220.106 173.027 220.665 188.717 221.899C204.408 223.134 194.996 219.566 211.858 219.627" stroke="#D4F6D5"/>
<path d="M175.332 196.947C181.742 195.988 196.787 194.668 205.685 197.056C216.806 200.041 231.013 210.105 235.606 207.765" stroke="#D4F6D5"/>
<path d="M271.087 137.093C270.21 140.231 264.155 147.199 246.953 149.964C225.45 153.42 228.798 154.021 221.539 152.817C214.794 152.793 210.883 152.189 202.607 162.172C194.33 172.155 163.496 211.505 162.109 217.979C160.721 224.453 162.431 223.87 158.281 229.156C154.13 234.442 151.032 241.498 146.392 245.015C141.752 248.532 150.313 259.165 174.603 256.308C198.892 253.45 194.324 255.201 198.964 251.684" stroke="#D4F6D5"/>
<path d="M195.688 97.36C199.259 101.692 205.988 112.239 204.332 119.772C202.263 129.188 207.226 131.562 203.589 138.028C199.953 144.494 204.402 145.688 205.849 151.582C207.006 156.298 204.17 160.607 202.607 162.172" stroke="#D4F6D5"/>
<path d="M144.802 242.654C144.064 246.97 140.521 256.656 132.255 260.867C121.922 266.13 122.436 267.31 116.181 269.055" stroke="#28962D"/>
</g>
<defs>
<clipPath id="clip0_11_81">
<rect width="300" height="300" fill="white"/>
</clipPath>
</defs>
</svg>
