<svg width="60" height="60" viewBox="0 0 60 60" fill="none" xmlns="http://www.w3.org/2000/svg">
<path d="M30 5C27.2182 4.99884 24.5014 5.84148 22.2085 7.41666C19.9156 8.99183 18.1544 11.2254 17.1575 13.8225C16.1204 13.5237 15.0691 13.2767 14.0075 13.0825C11.8241 12.687 9.60894 12.4929 7.39 12.5025L6.96 12.5125L6.84 12.5175L6.79 12.52C6.32875 12.5452 5.89303 12.7397 5.56639 13.0664C5.23975 13.393 5.04518 13.8287 5.02 14.29L5.0125 14.4625C5.0075 14.5625 5.00417 14.705 5.0025 14.89C4.9975 15.255 5 15.7775 5.0225 16.42C5.0725 17.705 5.215 19.49 5.5825 21.5075C5.9175 23.345 6.4525 25.42 7.3075 27.5H6.865C6.37037 27.5 5.896 27.6965 5.54625 28.0462C5.19649 28.396 5 28.8704 5 29.365V30C5 32.6125 5.4 35.1325 6.145 37.5H53.855C54.616 35.0728 55.0021 32.5437 55 30V29.365C55 28.8704 54.8035 28.396 54.4538 28.0462C54.104 27.6965 53.6296 27.5 53.135 27.5H52.4925L52.4975 27.1875C52.4961 24.4813 51.5949 21.8523 49.9357 19.7143C48.2766 17.5764 45.9537 16.0507 43.3325 15.3775C42.5818 12.4103 40.8626 9.77843 38.4471 7.89871C36.0317 6.01898 33.0582 4.99889 29.9975 5M29.9975 8.75C31.9973 8.74997 33.9512 9.34952 35.6067 10.4712C37.2623 11.5929 38.5436 13.1852 39.285 15.0425C37.1353 15.2237 35.0722 15.9717 33.3058 17.2101C31.5394 18.4486 30.133 20.1333 29.23 22.0925C28.5559 21.0936 27.7883 20.161 26.9375 19.3075C25.065 17.435 22.8875 16.0825 20.6825 15.1C21.4167 13.2272 22.6987 11.6194 24.3609 10.4866C26.0232 9.35371 27.9884 8.74851 30 8.75M48.7475 27.1875C48.7475 27.2925 48.745 27.3967 48.74 27.5H31.9175L31.8725 27.375V27.1875C31.8725 24.9497 32.7614 22.8036 34.3438 21.2213C35.9261 19.639 38.0722 18.75 40.31 18.75C42.5478 18.75 44.6939 19.639 46.2762 21.2213C47.8586 22.8036 48.7475 24.9497 48.7475 27.1875ZM24.2875 21.96C25.895 23.565 27.06 25.4975 27.9 27.5H22.65L18.2 23.05C18.0283 22.8658 17.8213 22.718 17.5913 22.6155C17.3613 22.5131 17.1131 22.458 16.8613 22.4535C16.6095 22.4491 16.3595 22.4954 16.126 22.5897C15.8925 22.684 15.6805 22.8244 15.5024 23.0024C15.3244 23.1805 15.184 23.3925 15.0897 23.626C14.9954 23.8595 14.9491 24.1095 14.9535 24.3613C14.958 24.6131 15.0131 24.8613 15.1155 25.0913C15.218 25.3213 15.3658 25.5283 15.55 25.7L17.35 27.5H11.425C10.325 25.31 9.665 22.9675 9.275 20.8325C9.00137 19.3278 8.83429 17.8057 8.775 16.2775V16.2725C9.925 16.315 11.53 16.4425 13.3325 16.7725C16.9825 17.44 21.23 18.8975 24.2875 21.96ZM7.6675 41.25C9.75132 45.3854 12.9428 48.8607 16.886 51.2885C20.8292 53.7163 25.3693 55.0013 30 55C34.6307 55.0013 39.1708 53.7163 43.114 51.2885C47.0572 48.8607 50.2487 45.3854 52.3325 41.25H7.6675Z" fill="#E49133"/>
</svg>
