<svg width="32" height="32" viewBox="0 0 32 32" fill="none" xmlns="http://www.w3.org/2000/svg">
<path d="M16.0001 29.3327C8.63608 29.3327 2.66675 23.3633 2.66675 15.9993C2.66675 8.63535 8.63608 2.66602 16.0001 2.66602C23.3641 2.66602 29.3334 8.63535 29.3334 15.9993C29.3334 23.3633 23.3641 29.3327 16.0001 29.3327ZM16.0001 26.666C18.8291 26.666 21.5422 25.5422 23.5426 23.5418C25.5429 21.5414 26.6667 18.8283 26.6667 15.9993C26.6667 13.1704 25.5429 10.4573 23.5426 8.45688C21.5422 6.45649 18.8291 5.33268 16.0001 5.33268C13.1711 5.33268 10.458 6.45649 8.45761 8.45688C6.45722 10.4573 5.33341 13.1704 5.33341 15.9993C5.33341 18.8283 6.45722 21.5414 8.45761 23.5418C10.458 25.5422 13.1711 26.666 16.0001 26.666ZM17.3334 15.9993H22.6667V18.666H14.6667V9.33268H17.3334V15.9993Z" fill="white"/>
</svg>
