<svg width="32" height="32" viewBox="0 0 32 32" fill="none" xmlns="http://www.w3.org/2000/svg">
<path fill-rule="evenodd" clip-rule="evenodd" d="M16.3841 27.878L16.3867 27.8767L16.3934 27.872L16.4134 27.8567L16.4921 27.8C16.5596 27.7507 16.6552 27.6787 16.7787 27.584C17.0241 27.396 17.3721 27.1193 17.7874 26.764C18.8777 25.8321 19.8972 24.8204 20.8374 23.7373C23.0427 21.1867 25.3334 17.5467 25.3334 13.384C25.3334 10.8973 24.3507 8.51067 22.6014 6.75067C21.7368 5.87953 20.7084 5.18802 19.5755 4.71595C18.4426 4.24387 17.2274 4.00055 16.0001 4C14.7728 4.00047 13.5577 4.24368 12.4247 4.71564C11.2918 5.1876 10.2634 5.87899 9.39875 6.75C7.64788 8.51415 6.66579 10.8992 6.66675 13.3847C6.66675 17.5467 8.95742 21.1867 11.1627 23.7373C12.103 24.8204 13.1225 25.8321 14.2127 26.764C14.6287 27.1193 14.9761 27.396 15.2214 27.584C15.3418 27.6767 15.4633 27.7678 15.5861 27.8573L15.6074 27.872L15.6134 27.8767L15.6161 27.878C15.8461 28.04 16.1541 28.04 16.3841 27.878ZM19.3334 13.3333C19.3334 14.2174 18.9822 15.0652 18.3571 15.6904C17.732 16.3155 16.8841 16.6667 16.0001 16.6667C15.116 16.6667 14.2682 16.3155 13.6431 15.6904C13.0179 15.0652 12.6667 14.2174 12.6667 13.3333C12.6667 12.4493 13.0179 11.6014 13.6431 10.9763C14.2682 10.3512 15.116 10 16.0001 10C16.8841 10 17.732 10.3512 18.3571 10.9763C18.9822 11.6014 19.3334 12.4493 19.3334 13.3333Z" fill="white"/>
</svg>
