<svg width="99" height="43" viewBox="0 0 99 43" fill="none" xmlns="http://www.w3.org/2000/svg">
<path fill-rule="evenodd" clip-rule="evenodd" d="M15.3334 9.99994C15.66 9.99998 15.9752 10.1199 16.2193 10.3369C16.4633 10.5539 16.6192 10.8529 16.6574 11.1773L16.6668 11.3333V20.9199L25.9201 18.3973C26.2612 18.3046 26.6251 18.3511 26.9318 18.5266C27.2386 18.7022 27.4631 18.9923 27.5561 19.3333C28.2532 21.8888 28.1315 24.5987 27.2083 27.0815C26.285 29.5643 24.6066 31.6952 22.4091 33.1744C20.2116 34.6536 17.6057 35.4067 14.9579 35.3276C12.3102 35.2486 9.75378 34.3414 7.64846 32.7338C5.54314 31.1262 3.9948 28.8989 3.22128 26.3654C2.44775 23.832 2.48796 21.1197 3.33625 18.6103C4.18454 16.1008 5.79822 13.9205 7.95027 12.3759C10.1024 10.8314 12.6845 10.0005 15.3334 9.99994ZM16.6668 24.6666C15.7827 24.6666 14.9349 25.0178 14.3097 25.6429C13.6846 26.268 13.3334 27.1159 13.3334 27.9999C13.3334 28.884 13.6846 29.7318 14.3097 30.357C14.9349 30.9821 15.7827 31.3333 16.6668 31.3333C17.5508 31.3333 18.3987 30.9821 19.0238 30.357C19.6489 29.7318 20.0001 28.884 20.0001 27.9999C20.0001 27.1159 19.6489 26.268 19.0238 25.6429C18.3987 25.0178 17.5508 24.6666 16.6668 24.6666ZM16.6668 27.3333C16.8436 27.3333 17.0131 27.4035 17.1382 27.5285C17.2632 27.6536 17.3334 27.8231 17.3334 27.9999C17.3334 28.1767 17.2632 28.3463 17.1382 28.4713C17.0131 28.5964 16.8436 28.6666 16.6668 28.6666C16.49 28.6666 16.3204 28.5964 16.1954 28.4713C16.0703 28.3463 16.0001 28.1767 16.0001 27.9999C16.0001 27.8231 16.0703 27.6536 16.1954 27.5285C16.3204 27.4035 16.49 27.3333 16.6668 27.3333ZM22.6668 23.3333C22.3402 23.3333 22.025 23.4532 21.7809 23.6702C21.5369 23.8872 21.381 24.1863 21.3428 24.5106L21.3334 24.6799C21.3338 25.0198 21.4639 25.3466 21.6972 25.5938C21.9305 25.8409 22.2494 25.9896 22.5886 26.0095C22.9279 26.0294 23.2619 25.919 23.5225 25.7009C23.7831 25.4828 23.9506 25.1734 23.9908 24.8359L24.0001 24.6666C24.0001 24.313 23.8596 23.9738 23.6096 23.7238C23.3595 23.4737 23.0204 23.3333 22.6668 23.3333ZM10.0001 21.9999C9.46962 21.9999 8.96092 22.2107 8.58584 22.5857C8.21077 22.9608 8.00006 23.4695 8.00006 23.9999C8.00006 24.5304 8.21077 25.0391 8.58584 25.4142C8.96092 25.7892 9.46962 25.9999 10.0001 25.9999C10.5305 25.9999 11.0392 25.7892 11.4143 25.4142C11.7894 25.0391 12.0001 24.5304 12.0001 23.9999C12.0001 23.4695 11.7894 22.9608 11.4143 22.5857C11.0392 22.2107 10.5305 21.9999 10.0001 21.9999ZM20.3921 8.72527C23.2104 9.59499 25.6378 11.419 27.2574 13.8839C27.4471 14.1728 27.5172 14.5239 27.453 14.8634C27.3889 15.2029 27.1954 15.5043 26.9134 15.7039L26.7788 15.7879L19.3014 19.8386C19.0957 19.9501 18.8642 20.0054 18.6303 19.9991C18.3964 19.9928 18.1682 19.925 17.9688 19.8026C17.7693 19.6802 17.6056 19.5074 17.4941 19.3017C17.3826 19.096 17.3272 18.8645 17.3334 18.6306L17.3494 18.4639L18.6828 9.79727C18.7118 9.60806 18.7813 9.42733 18.8865 9.26737C18.9917 9.10741 19.13 8.97197 19.2922 8.87026C19.4544 8.76855 19.6366 8.70296 19.8264 8.67794C20.0162 8.65292 20.2091 8.66906 20.3921 8.72527ZM10.6668 16.6666C10.3402 16.6666 10.025 16.7865 9.7809 17.0036C9.53685 17.2206 9.38093 17.5196 9.34272 17.8439L9.33339 18.0133C9.33377 18.3531 9.4639 18.68 9.69719 18.9271C9.93048 19.1742 10.2494 19.3229 10.5886 19.3428C10.9279 19.3627 11.2619 19.2524 11.5225 19.0342C11.7831 18.8161 11.9506 18.5067 11.9908 18.1693L12.0001 17.9999C12.0001 17.6463 11.8596 17.3072 11.6096 17.0571C11.3595 16.8071 11.0204 16.6666 10.6668 16.6666ZM21.0641 11.8506L20.3934 16.2146L24.1361 14.1866C23.2735 13.2159 22.2301 12.4224 21.0641 11.8506Z" fill="black"/>
<path d="M42.4599 25.18C42.4599 26.452 42.6039 27.376 42.8919 27.952C43.1799 28.504 43.6359 28.78 44.2599 28.78C44.9079 28.78 45.3639 28.504 45.6279 27.952C45.9159 27.376 46.0599 26.452 46.0599 25.18V8.07999H53.0799V24.856C53.0799 28.192 52.3599 30.616 50.9199 32.128C49.4799 33.616 47.2599 34.36 44.2599 34.36C41.2839 34.36 39.0639 33.616 37.5999 32.128C36.1599 30.616 35.4399 28.192 35.4399 24.856V8.07999H42.4599V25.18ZM63.6116 8.07999L68.6876 22.876V8.07999H75.5276V34H67.1036L62.4956 20.536V34H55.6556V11.788L54.1796 8.07999H63.6116ZM87.6846 34.36C85.3326 34.36 83.4366 33.964 81.9966 33.172C80.5566 32.356 79.5006 30.988 78.8286 29.068C78.1806 27.124 77.8566 24.46 77.8566 21.076C77.8566 17.692 78.1806 15.04 78.8286 13.12C79.5006 11.176 80.5566 9.80799 81.9966 9.01599C83.4366 8.19999 85.3326 7.79199 87.6846 7.79199C90.0366 7.79199 91.9326 8.19999 93.3726 9.01599C94.8126 9.80799 95.8566 11.176 96.5046 13.12C97.1766 15.04 97.5126 17.692 97.5126 21.076C97.5126 24.46 97.1766 27.124 96.5046 29.068C95.8566 30.988 94.8126 32.356 93.3726 33.172C91.9326 33.964 90.0366 34.36 87.6846 34.36ZM89.9526 21.004C89.9526 18.94 89.8806 17.368 89.7366 16.288C89.6166 15.184 89.3886 14.428 89.0526 14.02C88.7406 13.588 88.2846 13.372 87.6846 13.372C87.1086 13.372 86.6526 13.588 86.3166 14.02C85.9806 14.428 85.7406 15.184 85.5966 16.288C85.4766 17.368 85.4166 18.94 85.4166 21.004C85.4166 23.044 85.4766 24.628 85.5966 25.756C85.7406 26.884 85.9806 27.676 86.3166 28.132C86.6526 28.564 87.1086 28.78 87.6846 28.78C88.2846 28.78 88.7406 28.564 89.0526 28.132C89.3886 27.676 89.6166 26.884 89.7366 25.756C89.8806 24.628 89.9526 23.044 89.9526 21.004Z" fill="black"/>
</svg>
