<svg width="32" height="32" viewBox="0 0 32 32" fill="none" xmlns="http://www.w3.org/2000/svg">
<path d="M11.3306 5.12305C11.5685 5.12305 11.8021 5.18673 12.0071 5.30747C12.2122 5.42822 12.3812 5.60163 12.4966 5.80971L14.1272 8.74705C14.2324 8.93652 14.2898 9.14877 14.2944 9.36541C14.299 9.58206 14.2508 9.79657 14.1539 9.99038L12.5832 13.133C12.5832 13.133 13.0386 15.4737 14.9439 17.3797C16.8499 19.285 19.1826 19.733 19.1826 19.733L22.3246 18.1617C22.5185 18.0647 22.7331 18.0164 22.9499 18.021C23.1666 18.0257 23.379 18.0831 23.5686 18.1884L26.5152 19.827C26.7228 19.9427 26.8958 20.1116 27.0162 20.3165C27.1365 20.5214 27.2 20.7548 27.1999 20.9924V24.3744C27.1999 26.097 25.5999 27.341 23.9679 26.7904C20.6159 25.659 15.4126 23.5057 12.1146 20.2077C8.81723 16.9097 6.66323 11.707 5.53256 8.35438C4.9819 6.72305 6.2259 5.12305 7.94856 5.12305H11.3306Z" stroke="white" stroke-width="2.66667" stroke-linejoin="round"/>
</svg>
