<svg width="43" height="42" viewBox="0 0 43 42" fill="none" xmlns="http://www.w3.org/2000/svg">
<path fill-rule="evenodd" clip-rule="evenodd" d="M21.5 3.5C23.8529 3.49999 26.1827 3.95263 28.3564 4.83208C30.5302 5.71153 32.5053 7.00057 34.169 8.62559C35.8328 10.2506 37.1525 12.1798 38.0529 14.303C38.9533 16.4262 39.4167 18.7018 39.4167 21C39.4167 30.665 31.3951 38.5 21.5 38.5C11.605 38.5 3.58337 30.665 3.58337 21C3.58337 11.3351 11.605 3.5 21.5 3.5ZM23.2917 22.75H19.7084C15.2727 22.75 11.4646 25.374 9.82215 29.1196C12.421 32.679 16.683 35 21.5 35C26.317 35 30.5791 32.679 33.178 29.1193C31.5355 25.374 27.7274 22.75 23.2917 22.75ZM21.5 8.75C18.5315 8.75 16.125 11.1005 16.125 14C16.125 16.8995 18.5315 19.25 21.5 19.25C24.4685 19.25 26.875 16.8995 26.875 14C26.875 11.1005 24.4686 8.75 21.5 8.75Z" fill="black"/>
</svg>
